        <svg viewBox="0 0 250 250" xmlns="http://www.w3.org/2000/svg">
            <defs>
            <clipPath id="user" clipPathUnits="userSpace">
  <path fill="#4D4DFF" d="M11.4,-34.4C12,-19.4,7.7,-10.7,13.1,-6C18.5,-1.3,33.6,-0.6,45.4,6.8C57.2,14.3,65.8,28.6,62.6,37.1C59.4,45.7,44.5,48.4,32.1,52.6C19.7,56.8,9.9,62.4,2.6,57.8C-4.6,53.3,-9.3,38.7,-14.2,30.2C-19.1,21.8,-24.4,19.4,-29.5,15.4C-34.6,11.4,-39.7,5.7,-42.8,-1.8C-45.9,-9.3,-47.1,-18.6,-44.8,-27.5C-42.5,-36.5,-36.7,-45.1,-28.7,-55.7C-20.7,-66.4,-10.3,-79.1,-2.5,-74.8C5.4,-70.5,10.8,-49.3,11.4,-34.4Z" transform="translate(100 100)" />
    
            </clipPath>
            </defs>

            <image width="100%" height="100%" preserveAspectRatio="xMinYMin slice" xlink:href="../images/pngwing.com.png" clip-path="url(#user)" object-fit="cover" />
  </svg>


